<svg fill="none" height="21" viewBox="0 0 17 21" width="17" xmlns="http://www.w3.org/2000/svg"><path d="m16 6.43256c-.3513-1.28789-1.7843-4.01618-4.7059-4.62648-3.65194-.76287-5.73528.04922-7.15685.8121-1.42156.76287-3.13725 3.29759-3.13725 7.03814 0 2.99248.15819 4.28198 1.20098 6.34908 1.04279 2.0672 2.37745 2.968 4.77941 3.3222 2.80392.4134 4.04411 0 5.00001-.3691 1.152-.5168 2.5919-1.4273 3.0392-3.2238.3677-1.4765.2206-2.7562-.1716-3.5191-.3137-.6103-.8088-1.2058-2.0098-1.8456-.6127-.2379-2.2402-.67923-3.848-.54142-1.59353.13658-2.29147.55842-2.44692.75752-.00289.0037-.00553.0068-.00882.0101-.37642.3818-1.00804 1.4726-.55897 2.8253.45098 1.3584 2.60623 1.4355 3.62745 1.3043 1.02126-.1313 2.29416-1.1567 2.54906-3.4207.2535-2.2516-.2801-3.57019-.5833-3.95576-.0035-.00438-.0062-.00847-.0089-.01334-.292-.51851-1.383-1.47811-3.45196-1.22336-.4575.04922-1.39706.19687-1.93627 1.03357" stroke="#fff" stroke-linecap="round" stroke-width="2"/></svg>