<svg fill="none" height="21" viewBox="0 0 20 21" width="20" xmlns="http://www.w3.org/2000/svg"><g stroke="#fff" stroke-width="2"><path d="m15.1803 5.29524c0-.00148.0005-.00541.0023-.00969.0016-.0036.0033-.0059.0048-.00735.0014-.00145.0037-.00323.0073-.00475.0043-.00181.0082-.00231.0097-.00231s.0054.0005.0097.00231c.0036.00152.0059.0033.0074.00475.0014.00145.0032.00375.0047.00735.0018.00428.0023.00821.0023.00969s-.0005.00541-.0023.00969c-.0015.0036-.0033.00589-.0047.00735-.0015.00145-.0038.00323-.0074.00475-.0043.00181-.0082.00231-.0097.00231s-.0054-.0005-.0097-.00231c-.0036-.00152-.0059-.0033-.0073-.00475-.0015-.00146-.0032-.00375-.0048-.00735-.0018-.00428-.0023-.00821-.0023-.00969z" fill="#fff"/><path d="m13.8494 1.5h-7.6988c-2.8446 0-5.1506 2.306-5.1506 5.1506v7.6988c0 2.8446 2.306 5.1506 5.1506 5.1506h7.6988c2.8446 0 5.1506-2.306 5.1506-5.1506v-7.6988c0-2.8446-2.306-5.1506-5.1506-5.1506z"/><path d="m10.0004 14.7288c2.3356 0 4.2289-1.8933 4.2289-4.2289 0-2.33555-1.8933-4.2289-4.2289-4.2289-2.33557 0-4.22892 1.89335-4.22892 4.2289 0 2.3356 1.89335 4.2289 4.22892 4.2289z"/></g></svg>